# 3ds Max Wavefront OBJ Exporter v0.99 - (c)2007 guruware
# File Created: 07.09.2022 21:34:09

#
# object box_low
#

v  0.6208 0.0000 -0.6737
v  0.6208 0.0000 0.5679
v  -0.6208 0.0000 0.5679
v  -0.6208 0.0000 -0.6737
v  0.6208 1.2417 -0.6737
v  -0.6208 1.2417 -0.6737
v  -0.6208 1.2417 0.5679
v  0.6208 1.2417 0.5679
# 8 vertices

vn 0.0000 -1.0000 -0.0000
vn 0.0000 1.0000 -0.0000
vn 0.0000 0.0000 1.0000
vn 1.0000 0.0000 -0.0000
vn 0.0000 0.0000 -1.0000
vn -1.0000 0.0000 -0.0000
# 6 vertex normals

vt 0.9995 0.0005 0.0000
vt 0.9995 0.3323 0.0000
vt 0.6677 0.3323 0.0000
vt 0.6677 0.0005 0.0000
vt 0.9995 0.6740 0.0000
vt 0.6677 0.6740 0.0000
vt 0.6677 0.3423 0.0000
vt 0.9995 0.3423 0.0000
vt 0.3341 0.3323 0.0000
vt 0.3341 0.0005 0.0000
vt 0.6659 0.0005 0.0000
vt 0.6659 0.3323 0.0000
vt 0.3341 0.6740 0.0000
vt 0.3341 0.3423 0.0000
vt 0.6659 0.3423 0.0000
vt 0.6659 0.6740 0.0000
vt 0.0005 0.6746 0.0000
vt 0.0005 0.3428 0.0000
vt 0.3323 0.3428 0.0000
vt 0.3323 0.6746 0.0000
vt 0.3323 0.3323 0.0000
vt 0.0005 0.3323 0.0000
vt 0.0005 0.0005 0.0000
vt 0.3323 0.0005 0.0000
# 24 texture coords

o box_low
g box_low
s 2
f 1/1/1 2/2/1 3/3/1 
f 3/3/1 4/4/1 1/1/1 
s 4
f 5/5/2 6/6/2 7/7/2 
f 7/7/2 8/8/2 5/5/2 
s 8
f 8/9/3 7/10/3 3/11/3 
f 3/11/3 2/12/3 8/9/3 
s 16
f 5/13/4 8/14/4 2/15/4 
f 2/15/4 1/16/4 5/13/4 
s 32
f 6/17/5 5/18/5 1/19/5 
f 1/19/5 4/20/5 6/17/5 
s 64
f 7/21/6 6/22/6 4/23/6 
f 4/23/6 3/24/6 7/21/6 
# 12 faces

